<?xml version="1.0" encoding="UTF-8" standalone="no"?>
<svg width="24px" height="24px" viewBox="0 0 24 24" version="1.1" xmlns="http://www.w3.org/2000/svg" xmlns:xlink="http://www.w3.org/1999/xlink" xmlns:sketch="http://www.bohemiancoding.com/sketch/ns">
    <!-- Generator: Sketch 3.4.4 (17249) - http://www.bohemiancoding.com/sketch -->
    <title>Mask Copy</title>
    <desc>Created with Sketch.</desc>
    <defs>
        <path d="M6.16474574,14.2062321 C6.16474574,10.8016666 3.40480013,8.04172099 0,8.041721 L0,5.28825121 C0,2.36763071 2.36758274,0 5.28825121,0 L18.7117488,0 C21.6323693,0 24,2.36758274 24,5.28825121 L24,18.7117488 C24,21.6323693 21.6324173,24 18.7117488,24 L5.28825121,24 C2.9450721,24 0.957833834,22.476067 0.263627429,20.3652176 C3.54601604,20.22724 6.16474574,17.5225546 6.16474574,14.2062321 Z M12.6414602,17.2563755 C12.6414602,14.7249096 14.6936188,12.672751 17.2250848,12.672751 C19.7565507,12.672751 21.8087093,14.7249096 21.8087093,17.2563755 C21.8087093,19.7878414 19.7565507,21.84 17.2250848,21.84 C14.6936188,21.84 12.6414602,19.7878414 12.6414602,17.2563755 Z M6.91525424,8.15233388 C6.91525424,6.58776225 8.18359015,5.31942634 9.74816178,5.31942634 C11.3127334,5.31942634 12.5810693,6.58776225 12.5810693,8.15233388 C12.5810693,9.71690552 11.3127334,10.9852414 9.74816178,10.9852414 C8.18359015,10.9852414 6.91525424,9.71690552 6.91525424,8.15233388 Z M16.7405476,5.50576277 C16.7405476,4.53878199 17.5244404,3.75488918 18.4914212,3.75488918 C19.458402,3.75488918 20.2422948,4.53878199 20.2422948,5.50576277 C20.2422948,6.47274355 19.458402,7.25663636 18.4914212,7.25663636 C17.5244404,7.25663636 16.7405476,6.47274355 16.7405476,5.50576277 Z" id="path-1"></path>
    </defs>
    <g id="Page-1" stroke="none" stroke-width="1" fill="none" fill-rule="evenodd" sketch:type="MSPage">
        <mask id="mask-2" sketch:name="Mask Copy" fill="#FCB539">
            <use xlink:href="#path-1"></use>
        </mask>
        <use id="Mask-Copy" fill="#FCB539" sketch:type="MSShapeGroup" xlink:href="#path-1"></use>
    </g>
</svg>