<?xml version="1.0" encoding="UTF-8" standalone="no"?>
<svg width="395px" height="511px" viewBox="0 0 395 511" version="1.1" xmlns="http://www.w3.org/2000/svg" xmlns:xlink="http://www.w3.org/1999/xlink" xmlns:sketch="http://www.bohemiancoding.com/sketch/ns">
    <!-- Generator: Sketch 3.4.4 (17249) - http://www.bohemiancoding.com/sketch -->
    <title>asdfasfa</title>
    <desc>Created with Sketch.</desc>
    <defs></defs>
    <g id="Page-1" stroke="none" stroke-width="1" fill="none" fill-rule="evenodd" sketch:type="MSPage">
        <g id="asdfasfa" sketch:type="MSLayerGroup" fill="#FFFFFF">
            <path d="M65.8867188,346.698242 C65.8867188,346.698242 12.6914063,436.526367 8.609375,444.701172 C4.52734375,452.875977 9.24023438,458.72168 17.5898438,457.578125 C25.9394531,456.43457 76.5996094,451.035156 76.5996094,451.035156 C76.5996094,451.035156 97.8056613,501.209961 99.6230469,505.106445 C101.440432,509.00293 111.456052,513.083984 115.635742,506.825195 C119.815432,500.566406 199.007813,362.606445 199.007813,362.606445 C199.007813,362.606445 279.715825,502.429688 282.881836,506.56543 C286.047847,510.701172 294.517583,514.695312 299.632813,503.385742 C304.748042,492.076172 322.600586,451.071289 322.600586,451.071289 C322.600586,451.071289 375.505864,457.515625 381.371094,457.515625 C387.236323,457.515625 395.63477,453.172852 387.199219,439.599609 C378.763667,426.026367 331.859375,344.201172 331.859375,344.201172 C331.859375,344.201172 333.165044,342.981445 333.165039,339.34668 C333.165034,335.711914 326.754888,302.65332 326.754883,298.169922 C326.754878,293.686523 332.54688,283.432617 344.368164,281.407227 C356.189448,279.381836 373.371099,277.945313 378.084961,274.833008 C382.798823,271.720703 387.545903,264.817383 377.368164,252.455078 C367.190425,240.092773 344.57227,221.142578 365.067383,204.759766 C385.562495,188.376953 412.024419,177.494141 379.78418,161.65625 C347.54394,145.818359 339.209966,149.041992 355.275391,112.240234 C371.340815,75.4384766 357.04395,82.2304688 336.560547,82.2304688 C316.077144,82.2304688 298.173833,89.151369 296.49707,49.8115234 C294.820308,10.4716779 286.218755,21.5322266 263.208984,32.765625 C240.199214,43.9990234 237.119145,52.944336 218.063477,23.5771484 C199.007808,-5.79003916 198.22852,-8.66308584 179.833984,20.5742188 C161.439448,49.8115233 153.941403,45.1992186 137.157227,35.2714844 C120.37305,25.3437502 99.3212939,7.52539046 99.3212891,46.2861328 C99.3212842,85.0468752 86.1494132,83.6230467 59.8837891,82.0664063 C33.6181649,80.5097658 27.6894541,82.6103514 39.0292969,108.74707 C50.3691396,134.883789 59.772462,145.505859 16.2441406,161.87793 C-27.2841807,178.25 34.7373057,199.711914 37.7314453,212.678711 C40.7255849,225.645508 30.8193359,237.273437 18.0947266,253.90332 C5.3701172,270.533203 16.3837876,275.071289 38.7646484,279.100586 C61.1455093,283.129883 74.6806626,287.676758 66.6044922,316.65332 C58.5283218,345.629883 65.8867188,346.698242 65.8867188,346.698242 L65.8867188,346.698242 Z M198,310 C260.960461,310 312,258.960461 312,196 C312,133.039539 260.960461,82 198,82 C135.039539,82 84,133.039539 84,196 C84,258.960461 135.039539,310 198,310 L198,310 Z" id="Path-1" sketch:type="MSShapeGroup"></path>
            <path d="M177.84668,145.199219 L177.357422,162.279297 L192.672852,162.279297 L193.271484,228.157227 L178.995705,228.157227 L178.995705,246.752519 L226.185858,246.752519 L226.185858,229.716345 L213.387693,229.716345 L213.387693,144.497545 L178.316195,144.497545 L177.84668,145.199219 Z" id="Path-2" sketch:type="MSShapeGroup"></path>
        </g>
    </g>
</svg>